<?xml version="1.0" encoding="utf-8"?>
<!-- Generator: Adobe Illustrator 25.0.1, SVG Export Plug-In . SVG Version: 6.00 Build 0)  -->
<svg version="1.0" id="katman_1" xmlns="http://www.w3.org/2000/svg" xmlns:xlink="http://www.w3.org/1999/xlink" x="0px" y="0px"
	 viewBox="0 0 55.7 41.8" style="enable-background:new 0 0 55.7 41.8;" xml:space="preserve">
<style type="text/css">
	.st0{fill-rule:evenodd;clip-rule:evenodd;fill:#292929;}
	.st1{fill-rule:evenodd;clip-rule:evenodd;fill:#FFFFFF;}
</style>
<g>
	<circle class="st0" cx="27.9" cy="20.9" r="16"/>
	<path class="st1" d="M26.9,23.5c0-0.5,0-0.9,0-1.4c0-0.1,0-0.2,0.2-0.3c0.1,0,0.2,0,0.3,0.1c0.3,0.3,0.6,0.7,0.9,1
		c0.1,0.1,0.2,0.2,0.3,0.4c0,0,0,0.1,0,0.1c0,0.5,0,1,0,1.5c0,0.4-0.3,0.8-0.8,0.9c-0.4,0-0.8-0.3-0.9-0.7c0-0.1,0-0.1,0-0.2
		C26.9,24.9,26.9,23.5,26.9,23.5z M26.9,14.5C26.9,14.5,26.9,14.5,26.9,14.5l0-2.8c0-0.4,0.3-0.8,0.7-0.8c0.5-0.1,0.9,0.2,1,0.7
		c0,0.1,0,0.1,0,0.2c0,0.9,0,1.9,0,2.8l0,0c-0.2-0.3-0.5-0.5-0.8-0.5C27.3,14.1,27.1,14.2,26.9,14.5z M26.9,27.1
		c0.2,0.3,0.5,0.5,0.8,0.5c0.4,0,0.6-0.2,0.8-0.5v2.3c0,0.2,0,0.5,0,0.7c0,0.4-0.4,0.8-0.9,0.8c-0.4,0-0.8-0.4-0.8-0.8
		c0-0.9,0-1.8,0-2.7C26.9,27.4,26.9,27.1,26.9,27.1z M28.5,18.3V20c0,0.2,0,0.2-0.2,0.3c-0.1,0.1-0.3,0-0.4-0.1l-0.7-0.8
		c-0.1-0.1-0.2-0.3-0.4-0.4c0,0,0-0.1,0-0.1c0-0.7,0-1.4,0-2.1c0-0.4,0.3-0.8,0.8-0.8c0.4,0,0.8,0.2,0.9,0.7c0,0.1,0,0.1,0,0.2
		C28.5,17.2,28.5,17.8,28.5,18.3z M30.3,14.9v-2.2c0-0.4,0.2-0.7,0.6-0.8c0.5-0.2,1.1,0.2,1.1,0.8c0,0.6,0,1.1,0,1.7v2.8
		c0,0.4-0.2,0.7-0.6,0.9c-0.5,0.1-1-0.2-1-0.7c0-0.1,0-0.1,0-0.2L30.3,14.9L30.3,14.9z M25.2,25.6v2.6c0,0.4-0.3,0.8-0.7,0.8
		c-0.5,0.1-1-0.3-1-0.8c0-0.1,0-0.3,0-0.4v-4.8c0-0.4,0.3-0.7,0.6-0.8c0.4-0.1,0.9,0.2,1,0.6c0,0.1,0,0.1,0,0.2
		C25.2,23.9,25.2,24.8,25.2,25.6L25.2,25.6z M25.2,16.2v3.5c0,0.4-0.3,0.8-0.7,0.8c-0.5,0.1-0.9-0.2-1-0.6c0-0.1,0-0.1,0-0.2
		c0-0.5,0-1,0-1.5v-5.5c0-0.4,0.3-0.8,0.7-0.8c0.5-0.1,0.9,0.2,1,0.6c0,0.1,0,0.1,0,0.2c0,0.9,0,1.8,0,2.7L25.2,16.2z M30.3,24.4
		v-3.8c0-0.4,0.2-0.7,0.5-0.8c0.5-0.3,1.1,0.1,1.2,0.8v7.6c0,0.4-0.2,0.8-0.6,0.9c-0.5,0.1-1-0.2-1-0.7c0-0.1,0-0.1,0-0.2L30.3,24.4
		L30.3,24.4z M35.4,20.5v5.9c0,0.4-0.3,0.8-0.7,0.9c-0.5,0.1-1-0.3-1-0.8V14.6c0-0.4,0.2-0.7,0.5-0.8c0.5-0.2,1.1,0.2,1.1,0.8
		L35.4,20.5L35.4,20.5z M22,20.5v5.9c0,0.4-0.3,0.8-0.7,0.9c-0.5,0.1-1-0.3-1-0.8V14.6c0-0.4,0.2-0.7,0.6-0.8c0.4-0.1,0.9,0.1,1,0.6
		c0,0.1,0,0.1,0,0.2c0,0.7,0,1.3,0,2L22,20.5L22,20.5z"/>
</g>
</svg>
